<?xml version="1.0" standalone="no"?>
<!DOCTYPE svg PUBLIC "-//W3C//DTD SVG 20010904//EN"
 "http://www.w3.org/TR/2001/REC-SVG-20010904/DTD/svg10.dtd">
<svg version="1.0" xmlns="http://www.w3.org/2000/svg"
 width="512.000000pt" height="512.000000pt" viewBox="0 0 512.000000 512.000000"
 preserveAspectRatio="xMidYMid meet">

<g transform="translate(0.000000,512.000000) scale(0.100000,-0.100000)"
fill="#000000" stroke="none">
<path d="M2892 5004 c-17 -21 -41 -57 -54 -81 l-23 -43 -266 0 c-303 0 -332
-5 -398 -71 -47 -47 -71 -111 -71 -191 l0 -58 -1000 0 -1000 0 0 -320 0 -320
80 0 80 0 0 -1320 0 -1320 800 0 800 0 0 -280 0 -280 -320 0 -320 0 0 -320 0
-320 1360 0 1360 0 0 320 0 320 -320 0 -320 0 0 280 0 280 56 0 c45 0 67 -6
112 -33 239 -139 538 -164 801 -68 134 49 234 114 346 226 137 137 216 276
262 461 24 95 24 333 0 428 -81 325 -314 583 -625 692 l-67 23 -3 354 -2 355
432 -109 c238 -60 436 -109 441 -109 4 0 7 315 7 700 0 385 -2 700 -5 700 -6
0 -919 -228 -946 -236 -13 -4 -18 5 -24 43 -19 129 -92 252 -179 300 l-51 28
-456 3 -457 3 -30 -37z m917 -138 c35 -19 54 -48 83 -127 22 -62 23 -78 26
-467 3 -313 1 -407 -9 -418 -20 -24 -104 -63 -156 -73 -120 -23 -108 -27 -132
38 -63 173 -232 348 -415 431 -135 62 -147 63 -573 67 l-393 4 0 40 0 39 360
0 360 0 0 80 0 80 -360 0 -360 0 0 55 c0 46 4 60 25 80 l24 25 269 0 c261 0
269 -1 288 -21 33 -37 93 -60 271 -105 243 -61 299 -91 319 -168 6 -25 8 -26
86 -26 l81 0 -6 45 c-9 64 -39 116 -96 167 -62 56 -136 87 -323 133 -79 20
-158 40 -175 46 -37 12 -42 32 -17 67 l15 22 390 0 c321 0 395 -3 418 -14z
m1071 -666 c0 -269 -3 -490 -7 -490 -5 0 -185 43 -400 97 l-393 98 0 295 0
295 383 97 c210 53 390 97 400 97 16 1 17 -29 17 -489z m-2800 40 l0 -160
-920 0 -920 0 0 160 0 160 920 0 920 0 0 -160z m310 -82 c0 -2 -34 -37 -75
-77 l-75 -75 0 77 0 77 75 0 c41 0 75 -1 75 -2z m617 -14 c252 -52 446 -246
497 -496 20 -97 20 -159 0 -255 -41 -199 -166 -360 -349 -448 -77 -37 -196
-65 -275 -65 -133 0 -293 57 -403 145 -140 111 -237 313 -237 495 0 182 97
384 237 495 153 122 343 168 530 129z m-923 -336 c3 -62 5 -131 3 -153 -7
-120 1 -275 17 -334 75 -280 295 -499 577 -577 89 -25 309 -25 398 0 283 78
504 300 576 577 9 35 20 113 24 173 l6 110 70 12 c83 14 167 46 213 80 l32 25
0 -340 0 -341 -79 0 c-255 0 -492 -99 -677 -284 -347 -347 -379 -873 -78
-1268 l36 -48 -1401 0 -1401 0 0 1240 0 1240 839 0 839 0 6 -112z m1956 -939
c98 -15 220 -61 303 -112 90 -57 210 -180 265 -273 85 -144 125 -332 105 -492
-23 -183 -93 -330 -221 -464 -130 -136 -292 -217 -483 -241 -162 -20 -347 19
-494 105 -91 53 -230 192 -283 283 -87 149 -125 332 -104 501 56 445 475 763
912 693z m-920 -1949 l0 -360 -560 0 -560 0 0 360 0 360 560 0 560 0 0 -360z
m-1280 -440 l0 -80 720 0 720 0 0 80 0 80 240 0 240 0 0 -160 0 -160 -1200 0
-1200 0 0 160 0 160 240 0 240 0 0 -80z"/>
<path d="M2800 3920 l0 -80 -80 0 -80 0 0 -200 0 -200 160 0 160 0 0 -40 0
-40 -160 0 -160 0 0 -80 0 -80 80 0 80 0 0 -80 0 -80 80 0 80 0 0 80 0 80 80
0 80 0 0 200 0 200 -160 0 -160 0 0 40 0 40 160 0 160 0 0 80 0 80 -80 0 -80
0 0 80 0 80 -80 0 -80 0 0 -80z"/>
<path d="M560 3680 l0 -80 560 0 560 0 0 80 0 80 -560 0 -560 0 0 -80z"/>
<path d="M560 3360 l0 -80 160 0 160 0 0 80 0 80 -160 0 -160 0 0 -80z"/>
<path d="M1040 3360 l0 -80 320 0 320 0 0 80 0 80 -320 0 -320 0 0 -80z"/>
<path d="M1200 2440 l0 -680 -80 0 -80 0 0 320 0 320 -240 0 -240 0 0 -400 0
-400 1080 0 1080 0 0 80 0 80 -200 0 -200 0 0 480 0 480 -240 0 -240 0 0 -480
0 -480 -80 0 -80 0 0 680 0 680 -240 0 -240 0 0 -680z m320 -80 l0 -600 -80 0
-80 0 0 600 0 600 80 0 80 0 0 -600z m640 -200 l0 -400 -80 0 -80 0 0 400 0
400 80 0 80 0 0 -400z m-1280 -160 l0 -240 -80 0 -80 0 0 240 0 240 80 0 80 0
0 -240z"/>
<path d="M3840 2560 l0 -80 -120 0 -120 0 0 -240 0 -240 240 0 240 0 0 -80 0
-80 -240 0 -240 0 0 -80 0 -80 120 0 120 0 0 -80 0 -80 80 0 80 0 0 80 0 80
120 0 120 0 0 240 0 240 -240 0 -240 0 0 80 0 80 240 0 240 0 0 80 0 80 -120
0 -120 0 0 80 0 80 -80 0 -80 0 0 -80z"/>
</g>
</svg>